<svg width="16" height="16" viewBox="0 0 16 16" fill="none" xmlns="http://www.w3.org/2000/svg">
<path d="M8.00016 1.33325C4.3135 1.33325 1.3335 4.31325 1.3335 7.99992C1.3335 11.6866 4.3135 14.6666 8.00016 14.6666C11.6868 14.6666 14.6668 11.6866 14.6668 7.99992C14.6668 4.31325 11.6868 1.33325 8.00016 1.33325ZM10.8668 10.8666C10.6068 11.1266 10.1868 11.1266 9.92683 10.8666L8.00016 8.93992L6.0735 10.8666C5.8135 11.1266 5.3935 11.1266 5.1335 10.8666C4.8735 10.6066 4.8735 10.1866 5.1335 9.92659L7.06016 7.99992L5.1335 6.07325C4.8735 5.81325 4.8735 5.39325 5.1335 5.13325C5.3935 4.87325 5.8135 4.87325 6.0735 5.13325L8.00016 7.05992L9.92683 5.13325C10.1868 4.87325 10.6068 4.87325 10.8668 5.13325C11.1268 5.39325 11.1268 5.81325 10.8668 6.07325L8.94016 7.99992L10.8668 9.92659C11.1202 10.1799 11.1202 10.6066 10.8668 10.8666Z" fill="#BABFC7"/>
</svg>
