<svg width="16" height="16" viewBox="0 0 16 16" fill="none" xmlns="http://www.w3.org/2000/svg">
<path d="M11.1291 9.87907H10.4707L10.2374 9.65407C11.0541 8.70407 11.5457 7.47074 11.5457 6.12907C11.5457 3.1374 9.12074 0.712402 6.12907 0.712402C3.1374 0.712402 0.712402 3.1374 0.712402 6.12907C0.712402 9.12074 3.1374 11.5457 6.12907 11.5457C7.47074 11.5457 8.70407 11.0541 9.65407 10.2374L9.87907 10.4707V11.1291L14.0457 15.2874L15.2874 14.0457L11.1291 9.87907ZM6.12907 9.87907C4.05407 9.87907 2.37907 8.20407 2.37907 6.12907C2.37907 4.05407 4.05407 2.37907 6.12907 2.37907C8.20407 2.37907 9.87907 4.05407 9.87907 6.12907C9.87907 8.20407 8.20407 9.87907 6.12907 9.87907Z" fill="#82868B"/>
</svg>
